:FULLY-SPECIFIED
:FORCE-ALL-JOINTS-BE-3DOF
:DEGREES
2446
root 1.80713 14.8468 -23.0129 903.121 96.7332 -178.621
lfemur -40.8562 18.6616 -12.6999
ltibia 69.783 0 0
lfoot -24.6394 12.6964 0
ltoes -44.0388 0 0
rfemur -37.4375 -26.3627 15.8275
rtibia 75.8554 0 0
rfoot 3.92719 -5.32794 0
rtoes -4.96649 0 0
lowerback 15.624 2.74669 -3.45484
upperback -0.98029 3.18076 1.70355
thorax -9.8885 1.76978 3.05595
lowerneck 4.71085 -17.7021 -18.3644
upperneck -1.77351 -24.4698 18.209
head 1.64837 -12.272 7.52976
lclavicle 1.19687e-14 6.19776e-15 0
lhumerus -48.1212 -33.7215 116.849
lradius 95.8438 0 0
lwrist 59.4928 0 0
lhand -10.6168 401.393 0
lfingers 7.12502 0 0
lthumb 15.2914 -650.385 0
rclavicle 1.19687e-14 6.19776e-15 0
rhumerus 53.397 20.9744 -46.7774
rradius 117.369 0 0
rwrist -24.9195 0 0
rhand -25.0389 -402.281 0
rfingers 7.12502 0 0
rthumb 1.48121 288.017 0
2447
root 1.88698 14.838 -23.0378 903.33 96.4752 -178.184
lfemur -40.3152 18.8963 -12.6688
ltibia 69.9431 0 0
lfoot -24.9815 12.9232 0
ltoes -43.8703 0 0
rfemur -37.6405 -26.3488 15.3344
rtibia 74.514 0 0
rfoot 4.61328 -4.77556 0
rtoes -4.37477 0 0
lowerback 15.6239 2.59773 -3.57784
upperback -0.980626 2.97051 1.80715
thorax -9.87827 1.67975 3.29218
lowerneck 4.67685 -17.638 -18.3598
upperneck -1.57942 -24.3903 18.0733
head 1.70804 -12.2326 7.48278
lclavicle 1.21174e-14 4.69401e-15 0
lhumerus -48.7619 -34.2453 117.12
lradius 96.4413 0 0
lwrist 60.8408 0 0
lhand -9.32355 401.423 0
lfingers 7.12502 0 0
lthumb 16.5322 -650.491 0
rclavicle 1.21174e-14 4.69401e-15 0
rhumerus 51.1798 19.4902 -47.9147
rradius 117.052 0 0
rwrist -22.0268 0 0
rhand -25.8926 -402.529 0
rfingers 7.12502 0 0
rthumb 0.657144 287.771 0
2448
root 1.97041 14.8286 -23.0648 903.702 96.1327 -177.571
lfemur -39.7527 19.1334 -12.6419
ltibia 70.1313 0 0
lfoot -25.3261 13.1706 0
ltoes -43.6695 0 0
rfemur -37.8647 -26.3103 14.8185
rtibia 73.0992 0 0
rfoot 5.315 -4.20938 0
rtoes -3.74973 0 0
lowerback 15.6258 2.43929 -3.7031
upperback -0.981438 2.74787 1.91594
thorax -9.86903 1.58408 3.53845
lowerneck 4.63329 -17.5474 -18.3354
upperneck -1.36642 -24.2746 17.9062
head 1.77318 -12.1753 7.42423
lclavicle 1.22397e-14 3.10197e-15 0
lhumerus -49.3408 -34.8073 117.345
lradius 97.0863 0 0
lwrist 62.1884 0 0
lhand -7.98091 401.455 0
lfingers 7.12502 0 0
lthumb 17.8202 -650.602 0
rclavicle 1.22397e-14 3.10197e-15 0
rhumerus 48.7926 17.9522 -49.1357
rradius 116.693 0 0
rwrist -18.9627 0 0
rhand -26.7736 -402.79 0
rfingers 7.12502 0 0
rthumb -0.193296 287.513 0
2449
root 2.0575 14.8187 -23.0939 904.245 95.7027 -176.776
lfemur -39.1684 19.3728 -12.6194
ltibia 70.3487 0 0
lfoot -25.6729 13.4392 0
ltoes -43.4353 0 0
rfemur -38.111 -26.2464 14.2794
rtibia 71.6093 0 0
rfoot 6.03227 -3.62927 0
rtoes -3.09055 0 0
lowerback 15.6298 2.27113 -3.83062
upperback -0.982751 2.5125 2.03006
thorax -9.86084 1.48263 3.79496
lowerneck 4.57982 -17.4294 -18.2903
upperneck -1.13393 -24.1213 17.7066
head 1.84394 -12.0996 7.35371
lclavicle 1.23343e-14 1.41943e-15 0
lhumerus -49.8551 -35.4085 117.52
lradius 97.7802 0 0
lwrist 63.5345 0 0
lhand -6.5881 401.49 0
lfingers 7.12502 0 0
lthumb 19.1564 -650.716 0
rclavicle 1.23343e-14 1.41943e-15 0
rhumerus 46.2306 16.3595 -50.4426
rradius 116.291 0 0
rwrist -15.7228 0 0
rhand -27.6822 -403.064 0
rfingers 7.12502 0 0
rthumb -1.07045 287.243 0
2450
root 2.14834 14.808 -23.1251 904.965 95.1819 -175.793
lfemur -38.5619 19.6145 -12.6013
ltibia 70.5965 0 0
lfoot -26.0219 13.7298 0
ltoes -43.1665 0 0
rfemur -38.3801 -26.156 13.7167
rtibia 70.0427 0 0
rfoot 6.76502 -3.03511 0
rtoes -2.39641 0 0
lowerback 15.636 2.09301 -3.9604
upperback -0.984587 2.2641 2.1496
thorax -9.85375 1.37525 4.06191
lowerneck 4.51612 -17.2829 -18.224
upperneck -0.88138 -23.9292 17.4734
head 1.92048 -12.0047 7.27081
lclavicle 1.24001e-14 -3.5583e-16 0
lhumerus -50.3019 -36.0498 117.644
lradius 98.5244 0 0
lwrist 64.8781 0 0
lhand -5.1443 401.527 0
lfingers 7.12502 0 0
lthumb 20.5415 -650.835 0
rclavicle 1.24001e-14 -3.5583e-16 0
rhumerus 43.4889 14.7111 -51.8379
rradius 115.846 0 0
rwrist -12.3029 0 0
rhand -28.6188 -403.352 0
rfingers 7.12502 0 0
rthumb -1.97466 286.96 0
2451
root 2.243 14.7968 -23.1585 905.868 94.5673 -174.614
lfemur -37.933 19.8584 -12.588
ltibia 70.8756 0 0
lfoot -26.373 14.0428 0
ltoes -42.862 0 0
rfemur -38.6727 -26.0384 13.1297
rtibia 68.3978 0 0
rfoot 7.51314 -2.42677 0
rtoes -1.66649 0 0
lowerback 15.6444 1.90467 -4.09242
upperback -0.986971 2.00236 2.2747
thorax -9.84781 1.26178 4.33949
lowerneck 4.44184 -17.1071 -18.1354
upperneck -0.608195 -23.6968 17.2054
head 2.00298 -11.8901 7.1751
lclavicle 1.24357e-14 -2.22603e-15 0
lhumerus -50.6782 -36.7324 117.714
lradius 99.3203 0 0
lwrist 66.2181 0 0
lhand -3.64868 401.566 0
lfingers 7.12502 0 0
lthumb 21.9762 -650.958 0
rclavicle 1.24357e-14 -2.22603e-15 0
rhumerus 40.5629 13.0061 -53.3237
rradius 115.354 0 0
rwrist -8.69848 0 0
rhand -29.5837 -403.654 0
rfingers 7.12502 0 0
rthumb -2.90627 286.665 0
